<svg width="617" height="137" viewBox="0 0 617 137" fill="none" xmlns="http://www.w3.org/2000/svg">
<g filter="url(#filter0_d_5_35)">
<path d="M4.57031 98V46.8125H20.3203C24.8203 46.8125 28.8398 47.832 32.3789 49.8711C35.9414 51.8867 38.7188 54.7695 40.7109 58.5195C42.7031 62.2461 43.6992 66.4883 43.6992 71.2461V73.6016C43.6992 78.3594 42.7148 82.5898 40.7461 86.293C38.8008 89.9961 36.0469 92.8672 32.4844 94.9062C28.9219 96.9453 24.9023 97.9766 20.4258 98H4.57031ZM15.1172 55.3555V89.5273H20.2148C24.3398 89.5273 27.4922 88.1797 29.6719 85.4844C31.8516 82.7891 32.9648 78.9336 33.0117 73.918V71.2109C33.0117 66.0078 31.9336 62.0703 29.7773 59.3984C27.6211 56.7031 24.4688 55.3555 20.3203 55.3555H15.1172ZM68.2383 98.7031C62.6602 98.7031 58.1133 96.9922 54.5977 93.5703C51.1055 90.1484 49.3594 85.5898 49.3594 79.8945V78.9102C49.3594 75.0898 50.0977 71.6797 51.5742 68.6797C53.0508 65.6562 55.1367 63.3359 57.832 61.7188C60.5508 60.0781 63.6445 59.2578 67.1133 59.2578C72.3164 59.2578 76.4062 60.8984 79.3828 64.1797C82.3828 67.4609 83.8828 72.1133 83.8828 78.1367V82.2852H59.6602C59.9883 84.7695 60.9727 86.7617 62.6133 88.2617C64.2773 89.7617 66.375 90.5117 68.9062 90.5117C72.8203 90.5117 75.8789 89.0938 78.082 86.2578L83.0742 91.8477C81.5508 94.0039 79.4883 95.6914 76.8867 96.9102C74.2852 98.1055 71.4023 98.7031 68.2383 98.7031ZM67.0781 67.4844C65.0625 67.4844 63.4219 68.1641 62.1562 69.5234C60.9141 70.8828 60.1172 72.8281 59.7656 75.3594H73.8984V74.5508C73.8516 72.3008 73.2422 70.5664 72.0703 69.3477C70.8984 68.1055 69.2344 67.4844 67.0781 67.4844ZM88.207 78.6992C88.207 72.8633 89.5898 68.1641 92.3555 64.6016C95.1445 61.0391 98.8945 59.2578 103.605 59.2578C107.777 59.2578 111.023 60.6875 113.344 63.5469L113.766 59.9609H122.977V96.7344C122.977 100.062 122.215 102.957 120.691 105.418C119.191 107.879 117.07 109.754 114.328 111.043C111.586 112.332 108.375 112.977 104.695 112.977C101.906 112.977 99.1875 112.414 96.5391 111.289C93.8906 110.188 91.8867 108.758 90.5273 107L95.0273 100.812C97.5586 103.648 100.629 105.066 104.238 105.066C106.934 105.066 109.031 104.34 110.531 102.887C112.031 101.457 112.781 99.418 112.781 96.7695V94.7305C110.438 97.3789 107.355 98.7031 103.535 98.7031C98.9648 98.7031 95.2617 96.9219 92.4258 93.3594C89.6133 89.7734 88.207 85.0273 88.207 79.1211V78.6992ZM98.3672 79.4375C98.3672 82.8828 99.0586 85.5898 100.441 87.5586C101.824 89.5039 103.723 90.4766 106.137 90.4766C109.23 90.4766 111.445 89.3164 112.781 86.9961V71C111.422 68.6797 109.23 67.5195 106.207 67.5195C103.77 67.5195 101.848 68.5156 100.441 70.5078C99.0586 72.5 98.3672 75.4766 98.3672 79.4375ZM152.191 69.4883C150.809 69.3008 149.59 69.207 148.535 69.207C144.691 69.207 142.172 70.5078 140.977 73.1094V98H130.816V59.9609H140.414L140.695 64.4961C142.734 61.0039 145.559 59.2578 149.168 59.2578C150.293 59.2578 151.348 59.4102 152.332 59.7148L152.191 69.4883ZM173.918 98.7031C168.34 98.7031 163.793 96.9922 160.277 93.5703C156.785 90.1484 155.039 85.5898 155.039 79.8945V78.9102C155.039 75.0898 155.777 71.6797 157.254 68.6797C158.73 65.6562 160.816 63.3359 163.512 61.7188C166.23 60.0781 169.324 59.2578 172.793 59.2578C177.996 59.2578 182.086 60.8984 185.062 64.1797C188.062 67.4609 189.562 72.1133 189.562 78.1367V82.2852H165.34C165.668 84.7695 166.652 86.7617 168.293 88.2617C169.957 89.7617 172.055 90.5117 174.586 90.5117C178.5 90.5117 181.559 89.0938 183.762 86.2578L188.754 91.8477C187.23 94.0039 185.168 95.6914 182.566 96.9102C179.965 98.1055 177.082 98.7031 173.918 98.7031ZM172.758 67.4844C170.742 67.4844 169.102 68.1641 167.836 69.5234C166.594 70.8828 165.797 72.8281 165.445 75.3594H179.578V74.5508C179.531 72.3008 178.922 70.5664 177.75 69.3477C176.578 68.1055 174.914 67.4844 172.758 67.4844ZM212.871 98.7031C207.293 98.7031 202.746 96.9922 199.23 93.5703C195.738 90.1484 193.992 85.5898 193.992 79.8945V78.9102C193.992 75.0898 194.73 71.6797 196.207 68.6797C197.684 65.6562 199.77 63.3359 202.465 61.7188C205.184 60.0781 208.277 59.2578 211.746 59.2578C216.949 59.2578 221.039 60.8984 224.016 64.1797C227.016 67.4609 228.516 72.1133 228.516 78.1367V82.2852H204.293C204.621 84.7695 205.605 86.7617 207.246 88.2617C208.91 89.7617 211.008 90.5117 213.539 90.5117C217.453 90.5117 220.512 89.0938 222.715 86.2578L227.707 91.8477C226.184 94.0039 224.121 95.6914 221.52 96.9102C218.918 98.1055 216.035 98.7031 212.871 98.7031ZM211.711 67.4844C209.695 67.4844 208.055 68.1641 206.789 69.5234C205.547 70.8828 204.75 72.8281 204.398 75.3594H218.531V74.5508C218.484 72.3008 217.875 70.5664 216.703 69.3477C215.531 68.1055 213.867 67.4844 211.711 67.4844ZM293.098 80.9492C292.699 86.457 290.66 90.793 286.98 93.957C283.324 97.1211 278.496 98.7031 272.496 98.7031C265.934 98.7031 260.766 96.5 256.992 92.0938C253.242 87.6641 251.367 81.5938 251.367 73.8828V70.7539C251.367 65.832 252.234 61.4961 253.969 57.7461C255.703 53.9961 258.176 51.125 261.387 49.1328C264.621 47.1172 268.371 46.1094 272.637 46.1094C278.543 46.1094 283.301 47.6914 286.91 50.8555C290.52 54.0195 292.605 58.4609 293.168 64.1797H282.621C282.363 60.875 281.438 58.4844 279.844 57.0078C278.273 55.5078 275.871 54.7578 272.637 54.7578C269.121 54.7578 266.484 56.0234 264.727 58.5547C262.992 61.0625 262.102 64.9648 262.055 70.2617V74.1289C262.055 79.6602 262.887 83.7031 264.551 86.2578C266.238 88.8125 268.887 90.0898 272.496 90.0898C275.754 90.0898 278.18 89.3516 279.773 87.875C281.391 86.375 282.316 84.0664 282.551 80.9492H293.098ZM297.773 78.6289C297.773 74.8555 298.5 71.4922 299.953 68.5391C301.406 65.5859 303.492 63.3008 306.211 61.6836C308.953 60.0664 312.129 59.2578 315.738 59.2578C320.871 59.2578 325.055 60.8281 328.289 63.9688C331.547 67.1094 333.363 71.375 333.738 76.7656L333.809 79.3672C333.809 85.2031 332.18 89.8906 328.922 93.4297C325.664 96.9453 321.293 98.7031 315.809 98.7031C310.324 98.7031 305.941 96.9453 302.66 93.4297C299.402 89.9141 297.773 85.1328 297.773 79.0859V78.6289ZM307.934 79.3672C307.934 82.9766 308.613 85.7422 309.973 87.6641C311.332 89.5625 313.277 90.5117 315.809 90.5117C318.27 90.5117 320.191 89.5742 321.574 87.6992C322.957 85.8008 323.648 82.7773 323.648 78.6289C323.648 75.0898 322.957 72.3477 321.574 70.4023C320.191 68.457 318.246 67.4844 315.738 67.4844C313.254 67.4844 311.332 68.457 309.973 70.4023C308.613 72.3242 307.934 75.3125 307.934 79.3672ZM349.418 59.9609L349.734 64.3555C352.453 60.957 356.098 59.2578 360.668 59.2578C364.699 59.2578 367.699 60.4414 369.668 62.8086C371.637 65.1758 372.645 68.7148 372.691 73.4258V98H362.531V73.6719C362.531 71.5156 362.062 69.957 361.125 68.9961C360.188 68.0117 358.629 67.5195 356.449 67.5195C353.59 67.5195 351.445 68.7383 350.016 71.1758V98H339.855V59.9609H349.418ZM394.664 85.5898L401.73 59.9609H412.348L399.516 98H389.812L376.98 59.9609H387.598L394.664 85.5898ZM433.863 98.7031C428.285 98.7031 423.738 96.9922 420.223 93.5703C416.73 90.1484 414.984 85.5898 414.984 79.8945V78.9102C414.984 75.0898 415.723 71.6797 417.199 68.6797C418.676 65.6562 420.762 63.3359 423.457 61.7188C426.176 60.0781 429.27 59.2578 432.738 59.2578C437.941 59.2578 442.031 60.8984 445.008 64.1797C448.008 67.4609 449.508 72.1133 449.508 78.1367V82.2852H425.285C425.613 84.7695 426.598 86.7617 428.238 88.2617C429.902 89.7617 432 90.5117 434.531 90.5117C438.445 90.5117 441.504 89.0938 443.707 86.2578L448.699 91.8477C447.176 94.0039 445.113 95.6914 442.512 96.9102C439.91 98.1055 437.027 98.7031 433.863 98.7031ZM432.703 67.4844C430.688 67.4844 429.047 68.1641 427.781 69.5234C426.539 70.8828 425.742 72.8281 425.391 75.3594H439.523V74.5508C439.477 72.3008 438.867 70.5664 437.695 69.3477C436.523 68.1055 434.859 67.4844 432.703 67.4844ZM476.684 69.4883C475.301 69.3008 474.082 69.207 473.027 69.207C469.184 69.207 466.664 70.5078 465.469 73.1094V98H455.309V59.9609H464.906L465.188 64.4961C467.227 61.0039 470.051 59.2578 473.66 59.2578C474.785 59.2578 475.84 59.4102 476.824 59.7148L476.684 69.4883ZM495.527 50.6094V59.9609H502.031V67.4141H495.527V86.3984C495.527 87.8047 495.797 88.8125 496.336 89.4219C496.875 90.0312 497.906 90.3359 499.43 90.3359C500.555 90.3359 501.551 90.2539 502.418 90.0898V97.7891C500.426 98.3984 498.375 98.7031 496.266 98.7031C489.141 98.7031 485.508 95.1055 485.367 87.9102V67.4141H479.812V59.9609H485.367V50.6094H495.527ZM525.199 98.7031C519.621 98.7031 515.074 96.9922 511.559 93.5703C508.066 90.1484 506.32 85.5898 506.32 79.8945V78.9102C506.32 75.0898 507.059 71.6797 508.535 68.6797C510.012 65.6562 512.098 63.3359 514.793 61.7188C517.512 60.0781 520.605 59.2578 524.074 59.2578C529.277 59.2578 533.367 60.8984 536.344 64.1797C539.344 67.4609 540.844 72.1133 540.844 78.1367V82.2852H516.621C516.949 84.7695 517.934 86.7617 519.574 88.2617C521.238 89.7617 523.336 90.5117 525.867 90.5117C529.781 90.5117 532.84 89.0938 535.043 86.2578L540.035 91.8477C538.512 94.0039 536.449 95.6914 533.848 96.9102C531.246 98.1055 528.363 98.7031 525.199 98.7031ZM524.039 67.4844C522.023 67.4844 520.383 68.1641 519.117 69.5234C517.875 70.8828 517.078 72.8281 516.727 75.3594H530.859V74.5508C530.812 72.3008 530.203 70.5664 529.031 69.3477C527.859 68.1055 526.195 67.4844 524.039 67.4844ZM568.02 69.4883C566.637 69.3008 565.418 69.207 564.363 69.207C560.52 69.207 558 70.5078 556.805 73.1094V98H546.645V59.9609H556.242L556.523 64.4961C558.562 61.0039 561.387 59.2578 564.996 59.2578C566.121 59.2578 567.176 59.4102 568.16 59.7148L568.02 69.4883Z" fill="white"/>
<circle cx="587.759" cy="113.989" r="15" transform="rotate(7.19008 587.759 113.989)" fill="white"/>
<rect x="593.966" y="0.876129" width="15" height="111" rx="7.5" transform="rotate(7.19008 593.966 0.876129)" fill="white"/>
<circle cx="587.759" cy="113.989" r="12" transform="rotate(7.19008 587.759 113.989)" fill="#E33E3E"/>
<rect x="596.808" y="10.306" width="7" height="96" rx="3.5" transform="rotate(7.19008 596.808 10.306)" fill="#E33E3E"/>
<line x1="581.637" y1="98.6016" x2="590.566" y2="99.728" stroke="#595959" stroke-opacity="0.57"/>
<line x1="582.889" y1="88.6802" x2="585.865" y2="89.0557" stroke="#595959" stroke-opacity="0.57"/>
<line x1="584.14" y1="78.7588" x2="593.07" y2="79.8853" stroke="#595959" stroke-opacity="0.57"/>
<line x1="585.392" y1="68.8375" x2="588.368" y2="69.2129" stroke="#595959" stroke-opacity="0.57"/>
<line x1="586.644" y1="58.9161" x2="595.573" y2="60.0426" stroke="#595959" stroke-opacity="0.57"/>
<line x1="587.895" y1="48.9947" x2="590.872" y2="49.3702" stroke="#595959" stroke-opacity="0.57"/>
<line x1="589.147" y1="39.0734" x2="598.076" y2="40.1998" stroke="#595959" stroke-opacity="0.57"/>
<line x1="590.398" y1="29.152" x2="593.375" y2="29.5275" stroke="#595959" stroke-opacity="0.57"/>
<line x1="591.65" y1="19.2306" x2="600.579" y2="20.3571" stroke="#595959" stroke-opacity="0.57"/>
</g>
<defs>
<filter id="filter0_d_5_35" x="0.570312" y="1.75507" width="611.398" height="135.235" filterUnits="userSpaceOnUse" color-interpolation-filters="sRGB">
<feFlood flood-opacity="0" result="BackgroundImageFix"/>
<feColorMatrix in="SourceAlpha" type="matrix" values="0 0 0 0 0 0 0 0 0 0 0 0 0 0 0 0 0 0 127 0" result="hardAlpha"/>
<feOffset dy="4"/>
<feGaussianBlur stdDeviation="2"/>
<feComposite in2="hardAlpha" operator="out"/>
<feColorMatrix type="matrix" values="0 0 0 0 0 0 0 0 0 0 0 0 0 0 0 0 0 0 0.25 0"/>
<feBlend mode="normal" in2="BackgroundImageFix" result="effect1_dropShadow_5_35"/>
<feBlend mode="normal" in="SourceGraphic" in2="effect1_dropShadow_5_35" result="shape"/>
</filter>
</defs>
</svg>
